<?xml version="1.0" encoding="utf-8"?>
<!-- Generator: Adobe Illustrator 26.2.1, SVG Export Plug-In . SVG Version: 6.00 Build 0)  -->
<svg version="1.1" id="Layer" xmlns="http://www.w3.org/2000/svg" xmlns:xlink="http://www.w3.org/1999/xlink" x="0px" y="0px"
	 viewBox="0 0 512 512" style="enable-background:new 0 0 512 512;" xml:space="preserve">
<style type="text/css">
	.st0{fill:#344739;}
	.st1{fill:#4D664F;}
</style>
<g id="angles-left-small">
	<path class="st0" d="M264.7,213.3c2.3,0,4.4,0.9,6,2.5l34,34c3.3,3.3,3.3,8.7,0,12l-34,34c-3.3,3.4-8.7,3.5-12,0.2
		c-3.4-3.3-3.5-8.7-0.2-12c0.1-0.1,0.1-0.1,0.2-0.2l28-28l-28-28c-3.3-3.3-3.3-8.7,0-12C260.3,214.2,262.4,213.3,264.7,213.3
		L264.7,213.3z"/>
	<path class="st1" d="M213.6,213.3c2.3,0,4.4,0.9,6,2.5l34,34c3.3,3.3,3.3,8.7,0,12l-34,34c-3.3,3.4-8.7,3.5-12,0.2s-3.5-8.7-0.2-12
		c0.1-0.1,0.1-0.1,0.2-0.2l28-28l-28-28c-3.3-3.3-3.3-8.7,0-12C209.2,214.2,211.4,213.3,213.6,213.3L213.6,213.3z"/>
</g>
</svg>
